<mxfile host="app.diagrams.net" agent="Mozilla/5.0 (Windows NT 10.0; Win64; x64) AppleWebKit/537.36 (KHTML, like Gecko) Chrome/138.0.0.0 YaBrowser/25.8.0.0 Safari/537.36" version="28.2.5">
  <diagram name="Страница — 1" id="RpcU45R3sa7CpbI4KHVt">
    <mxGraphModel dx="2550" dy="995" grid="1" gridSize="10" guides="1" tooltips="1" connect="1" arrows="1" fold="1" page="1" pageScale="1" pageWidth="827" pageHeight="1169" math="0" shadow="0">
      <root>
        <mxCell id="0" />
        <mxCell id="1" parent="0" />
        <mxCell id="_udomX1yUHnwnR1fSbX4-1" value="команда" style="rounded=0;whiteSpace=wrap;html=1;" vertex="1" parent="1">
          <mxGeometry x="-170" y="270" width="120" height="60" as="geometry" />
        </mxCell>
        <mxCell id="_udomX1yUHnwnR1fSbX4-2" value="игрок" style="rounded=0;whiteSpace=wrap;html=1;" vertex="1" parent="1">
          <mxGeometry x="-170" y="490" width="120" height="60" as="geometry" />
        </mxCell>
        <mxCell id="_udomX1yUHnwnR1fSbX4-3" value="тренер" style="rounded=0;whiteSpace=wrap;html=1;" vertex="1" parent="1">
          <mxGeometry x="300" y="380" width="120" height="60" as="geometry" />
        </mxCell>
        <mxCell id="_udomX1yUHnwnR1fSbX4-4" value="год основания" style="ellipse;whiteSpace=wrap;html=1;" vertex="1" parent="1">
          <mxGeometry x="-290" y="180" width="120" height="40" as="geometry" />
        </mxCell>
        <mxCell id="_udomX1yUHnwnR1fSbX4-5" value="состав" style="ellipse;whiteSpace=wrap;html=1;" vertex="1" parent="1">
          <mxGeometry x="-156" y="180" width="120" height="40" as="geometry" />
        </mxCell>
        <mxCell id="_udomX1yUHnwnR1fSbX4-6" value="страна" style="ellipse;whiteSpace=wrap;html=1;" vertex="1" parent="1">
          <mxGeometry x="-360" y="230" width="120" height="40" as="geometry" />
        </mxCell>
        <mxCell id="_udomX1yUHnwnR1fSbX4-7" value="название" style="ellipse;whiteSpace=wrap;html=1;" vertex="1" parent="1">
          <mxGeometry x="-26" y="180" width="120" height="40" as="geometry" />
        </mxCell>
        <mxCell id="_udomX1yUHnwnR1fSbX4-9" value="ФИО" style="ellipse;whiteSpace=wrap;html=1;" vertex="1" parent="1">
          <mxGeometry x="-330" y="520" width="120" height="40" as="geometry" />
        </mxCell>
        <mxCell id="_udomX1yUHnwnR1fSbX4-15" value="ФИО" style="ellipse;whiteSpace=wrap;html=1;" vertex="1" parent="1">
          <mxGeometry x="290" y="300" width="120" height="40" as="geometry" />
        </mxCell>
        <mxCell id="_udomX1yUHnwnR1fSbX4-17" value="id" style="ellipse;whiteSpace=wrap;html=1;" vertex="1" parent="1">
          <mxGeometry x="-10" y="230" width="120" height="40" as="geometry" />
        </mxCell>
        <mxCell id="_udomX1yUHnwnR1fSbX4-18" value="цена" style="ellipse;whiteSpace=wrap;html=1;" vertex="1" parent="1">
          <mxGeometry x="-70" y="610" width="120" height="40" as="geometry" />
        </mxCell>
        <mxCell id="_udomX1yUHnwnR1fSbX4-20" value="трофеи" style="ellipse;whiteSpace=wrap;html=1;" vertex="1" parent="1">
          <mxGeometry x="-340" y="290" width="120" height="40" as="geometry" />
        </mxCell>
        <mxCell id="_udomX1yUHnwnR1fSbX4-22" value="зарплата" style="ellipse;whiteSpace=wrap;html=1;" vertex="1" parent="1">
          <mxGeometry x="-20" y="560" width="120" height="40" as="geometry" />
        </mxCell>
        <mxCell id="_udomX1yUHnwnR1fSbX4-23" value="зарплата" style="ellipse;whiteSpace=wrap;html=1;" vertex="1" parent="1">
          <mxGeometry x="440" y="380" width="120" height="40" as="geometry" />
        </mxCell>
        <mxCell id="_udomX1yUHnwnR1fSbX4-25" value="" style="endArrow=none;html=1;rounded=0;exitX=0.933;exitY=0.275;exitDx=0;exitDy=0;exitPerimeter=0;" edge="1" parent="1" source="_udomX1yUHnwnR1fSbX4-20">
          <mxGeometry width="50" height="50" relative="1" as="geometry">
            <mxPoint x="-220" y="360" as="sourcePoint" />
            <mxPoint x="-170" y="310" as="targetPoint" />
          </mxGeometry>
        </mxCell>
        <mxCell id="_udomX1yUHnwnR1fSbX4-26" value="" style="endArrow=none;html=1;rounded=0;exitX=1;exitY=1;exitDx=0;exitDy=0;" edge="1" parent="1" source="_udomX1yUHnwnR1fSbX4-6">
          <mxGeometry width="50" height="50" relative="1" as="geometry">
            <mxPoint x="-220" y="330" as="sourcePoint" />
            <mxPoint x="-170" y="280" as="targetPoint" />
          </mxGeometry>
        </mxCell>
        <mxCell id="_udomX1yUHnwnR1fSbX4-27" value="" style="endArrow=none;html=1;rounded=0;exitX=0.108;exitY=-0.033;exitDx=0;exitDy=0;exitPerimeter=0;" edge="1" parent="1" source="_udomX1yUHnwnR1fSbX4-1">
          <mxGeometry width="50" height="50" relative="1" as="geometry">
            <mxPoint x="-250" y="270" as="sourcePoint" />
            <mxPoint x="-200" y="220" as="targetPoint" />
          </mxGeometry>
        </mxCell>
        <mxCell id="_udomX1yUHnwnR1fSbX4-28" value="" style="endArrow=none;html=1;rounded=0;exitX=0.383;exitY=0;exitDx=0;exitDy=0;exitPerimeter=0;" edge="1" parent="1" source="_udomX1yUHnwnR1fSbX4-1">
          <mxGeometry width="50" height="50" relative="1" as="geometry">
            <mxPoint x="-165" y="270" as="sourcePoint" />
            <mxPoint x="-115" y="220" as="targetPoint" />
          </mxGeometry>
        </mxCell>
        <mxCell id="_udomX1yUHnwnR1fSbX4-29" value="" style="endArrow=none;html=1;rounded=0;entryX=0.217;entryY=1;entryDx=0;entryDy=0;entryPerimeter=0;" edge="1" parent="1" target="_udomX1yUHnwnR1fSbX4-7">
          <mxGeometry width="50" height="50" relative="1" as="geometry">
            <mxPoint x="-50" y="270" as="sourcePoint" />
            <mxPoint x="-8.960000000000491" y="221" as="targetPoint" />
          </mxGeometry>
        </mxCell>
        <mxCell id="_udomX1yUHnwnR1fSbX4-30" value="" style="endArrow=none;html=1;rounded=0;exitX=1;exitY=0.5;exitDx=0;exitDy=0;entryX=0;entryY=1;entryDx=0;entryDy=0;" edge="1" parent="1" source="_udomX1yUHnwnR1fSbX4-1" target="_udomX1yUHnwnR1fSbX4-17">
          <mxGeometry width="50" height="50" relative="1" as="geometry">
            <mxPoint x="-20" y="325" as="sourcePoint" />
            <mxPoint x="30" y="275" as="targetPoint" />
          </mxGeometry>
        </mxCell>
        <mxCell id="_udomX1yUHnwnR1fSbX4-32" value="Относится" style="rhombus;whiteSpace=wrap;html=1;" vertex="1" parent="1">
          <mxGeometry x="-150" y="380" width="80" height="60" as="geometry" />
        </mxCell>
        <mxCell id="_udomX1yUHnwnR1fSbX4-33" value="" style="endArrow=none;html=1;rounded=0;entryX=0.5;entryY=1;entryDx=0;entryDy=0;exitX=0.5;exitY=0;exitDx=0;exitDy=0;" edge="1" parent="1" source="_udomX1yUHnwnR1fSbX4-2" target="_udomX1yUHnwnR1fSbX4-32">
          <mxGeometry width="50" height="50" relative="1" as="geometry">
            <mxPoint x="-150" y="500" as="sourcePoint" />
            <mxPoint x="-100" y="450" as="targetPoint" />
          </mxGeometry>
        </mxCell>
        <mxCell id="_udomX1yUHnwnR1fSbX4-34" value="" style="endArrow=none;html=1;rounded=0;exitX=0.5;exitY=0;exitDx=0;exitDy=0;entryX=0.5;entryY=1;entryDx=0;entryDy=0;" edge="1" parent="1" source="_udomX1yUHnwnR1fSbX4-32" target="_udomX1yUHnwnR1fSbX4-1">
          <mxGeometry width="50" height="50" relative="1" as="geometry">
            <mxPoint x="-150" y="380" as="sourcePoint" />
            <mxPoint x="-100" y="330" as="targetPoint" />
          </mxGeometry>
        </mxCell>
        <mxCell id="_udomX1yUHnwnR1fSbX4-35" value="" style="endArrow=none;html=1;rounded=0;exitX=1;exitY=0;exitDx=0;exitDy=0;entryX=0;entryY=0.5;entryDx=0;entryDy=0;" edge="1" parent="1" source="_udomX1yUHnwnR1fSbX4-2" target="WnXqNh1kkMshPcRodjIi-2">
          <mxGeometry width="50" height="50" relative="1" as="geometry">
            <mxPoint x="-50" y="510" as="sourcePoint" />
            <mxPoint x="-3.9600000000000364" y="476" as="targetPoint" />
          </mxGeometry>
        </mxCell>
        <mxCell id="_udomX1yUHnwnR1fSbX4-36" value="" style="endArrow=none;html=1;rounded=0;exitX=0.075;exitY=0.175;exitDx=0;exitDy=0;exitPerimeter=0;" edge="1" parent="1" source="_udomX1yUHnwnR1fSbX4-22">
          <mxGeometry width="50" height="50" relative="1" as="geometry">
            <mxPoint x="-100" y="590" as="sourcePoint" />
            <mxPoint x="-50" y="540" as="targetPoint" />
          </mxGeometry>
        </mxCell>
        <mxCell id="_udomX1yUHnwnR1fSbX4-37" value="национальность" style="ellipse;whiteSpace=wrap;html=1;" vertex="1" parent="1">
          <mxGeometry x="-290" y="580" width="120" height="40" as="geometry" />
        </mxCell>
        <mxCell id="_udomX1yUHnwnR1fSbX4-38" value="национальность" style="ellipse;whiteSpace=wrap;html=1;" vertex="1" parent="1">
          <mxGeometry x="280" y="480" width="120" height="40" as="geometry" />
        </mxCell>
        <mxCell id="_udomX1yUHnwnR1fSbX4-39" value="" style="endArrow=none;html=1;rounded=0;exitX=0.392;exitY=0.1;exitDx=0;exitDy=0;exitPerimeter=0;" edge="1" parent="1" source="_udomX1yUHnwnR1fSbX4-18">
          <mxGeometry width="50" height="50" relative="1" as="geometry">
            <mxPoint x="-120" y="600" as="sourcePoint" />
            <mxPoint x="-70" y="550" as="targetPoint" />
          </mxGeometry>
        </mxCell>
        <mxCell id="_udomX1yUHnwnR1fSbX4-40" value="" style="endArrow=none;html=1;rounded=0;exitX=0.25;exitY=1;exitDx=0;exitDy=0;entryX=0.633;entryY=0;entryDx=0;entryDy=0;entryPerimeter=0;" edge="1" parent="1" source="_udomX1yUHnwnR1fSbX4-2" target="_udomX1yUHnwnR1fSbX4-37">
          <mxGeometry width="50" height="50" relative="1" as="geometry">
            <mxPoint x="70" y="600" as="sourcePoint" />
            <mxPoint x="-100" y="570" as="targetPoint" />
          </mxGeometry>
        </mxCell>
        <mxCell id="_udomX1yUHnwnR1fSbX4-42" value="" style="endArrow=none;html=1;rounded=0;exitX=0.925;exitY=0.225;exitDx=0;exitDy=0;exitPerimeter=0;" edge="1" parent="1" source="_udomX1yUHnwnR1fSbX4-9">
          <mxGeometry width="50" height="50" relative="1" as="geometry">
            <mxPoint x="-220" y="550" as="sourcePoint" />
            <mxPoint x="-170" y="500" as="targetPoint" />
          </mxGeometry>
        </mxCell>
        <mxCell id="_udomX1yUHnwnR1fSbX4-44" value="руководит" style="rhombus;whiteSpace=wrap;html=1;" vertex="1" parent="1">
          <mxGeometry x="110" y="280" width="80" height="60" as="geometry" />
        </mxCell>
        <mxCell id="_udomX1yUHnwnR1fSbX4-45" style="edgeStyle=orthogonalEdgeStyle;rounded=0;orthogonalLoop=1;jettySize=auto;html=1;exitX=0.5;exitY=1;exitDx=0;exitDy=0;" edge="1" parent="1" source="_udomX1yUHnwnR1fSbX4-44" target="_udomX1yUHnwnR1fSbX4-44">
          <mxGeometry relative="1" as="geometry" />
        </mxCell>
        <mxCell id="_udomX1yUHnwnR1fSbX4-46" value="" style="endArrow=none;html=1;rounded=0;entryX=0;entryY=0.5;entryDx=0;entryDy=0;" edge="1" parent="1" target="_udomX1yUHnwnR1fSbX4-44">
          <mxGeometry width="50" height="50" relative="1" as="geometry">
            <mxPoint x="-50" y="300" as="sourcePoint" />
            <mxPoint x="90" y="300" as="targetPoint" />
          </mxGeometry>
        </mxCell>
        <mxCell id="_udomX1yUHnwnR1fSbX4-47" value="" style="endArrow=none;html=1;rounded=0;entryX=0;entryY=0.5;entryDx=0;entryDy=0;exitX=1;exitY=1;exitDx=0;exitDy=0;" edge="1" parent="1" target="_udomX1yUHnwnR1fSbX4-3" source="_udomX1yUHnwnR1fSbX4-44">
          <mxGeometry width="50" height="50" relative="1" as="geometry">
            <mxPoint x="174" y="300" as="sourcePoint" />
            <mxPoint x="224" y="250" as="targetPoint" />
          </mxGeometry>
        </mxCell>
        <mxCell id="_udomX1yUHnwnR1fSbX4-48" value="" style="endArrow=none;html=1;rounded=0;exitX=0.25;exitY=0;exitDx=0;exitDy=0;entryX=0.417;entryY=1;entryDx=0;entryDy=0;entryPerimeter=0;" edge="1" parent="1" source="_udomX1yUHnwnR1fSbX4-3" target="_udomX1yUHnwnR1fSbX4-15">
          <mxGeometry width="50" height="50" relative="1" as="geometry">
            <mxPoint x="244" y="390" as="sourcePoint" />
            <mxPoint x="294" y="340" as="targetPoint" />
          </mxGeometry>
        </mxCell>
        <mxCell id="_udomX1yUHnwnR1fSbX4-50" value="" style="endArrow=none;html=1;rounded=0;exitX=1;exitY=0.5;exitDx=0;exitDy=0;" edge="1" parent="1" source="_udomX1yUHnwnR1fSbX4-3">
          <mxGeometry width="50" height="50" relative="1" as="geometry">
            <mxPoint x="390" y="450" as="sourcePoint" />
            <mxPoint x="440" y="400" as="targetPoint" />
          </mxGeometry>
        </mxCell>
        <mxCell id="_udomX1yUHnwnR1fSbX4-51" value="" style="endArrow=none;html=1;rounded=0;exitX=0.5;exitY=0;exitDx=0;exitDy=0;" edge="1" parent="1" source="_udomX1yUHnwnR1fSbX4-38">
          <mxGeometry width="50" height="50" relative="1" as="geometry">
            <mxPoint x="290" y="490" as="sourcePoint" />
            <mxPoint x="340" y="440" as="targetPoint" />
          </mxGeometry>
        </mxCell>
        <mxCell id="_udomX1yUHnwnR1fSbX4-53" value="номер на футболке" style="ellipse;whiteSpace=wrap;html=1;" vertex="1" parent="1">
          <mxGeometry x="-180" y="630" width="120" height="40" as="geometry" />
        </mxCell>
        <mxCell id="_udomX1yUHnwnR1fSbX4-54" value="" style="endArrow=none;html=1;rounded=0;exitX=0.558;exitY=-0.025;exitDx=0;exitDy=0;exitPerimeter=0;" edge="1" parent="1" source="_udomX1yUHnwnR1fSbX4-53">
          <mxGeometry width="50" height="50" relative="1" as="geometry">
            <mxPoint x="-150" y="600" as="sourcePoint" />
            <mxPoint x="-100" y="550" as="targetPoint" />
          </mxGeometry>
        </mxCell>
        <mxCell id="_udomX1yUHnwnR1fSbX4-62" value="матч" style="rounded=0;whiteSpace=wrap;html=1;" vertex="1" parent="1">
          <mxGeometry x="-583" y="390" width="120" height="60" as="geometry" />
        </mxCell>
        <mxCell id="_udomX1yUHnwnR1fSbX4-64" value="результат" style="ellipse;whiteSpace=wrap;html=1;" vertex="1" parent="1">
          <mxGeometry x="-480" y="470" width="120" height="40" as="geometry" />
        </mxCell>
        <mxCell id="_udomX1yUHnwnR1fSbX4-65" value="дата и время" style="ellipse;whiteSpace=wrap;html=1;" vertex="1" parent="1">
          <mxGeometry x="-740" y="420" width="120" height="40" as="geometry" />
        </mxCell>
        <mxCell id="_udomX1yUHnwnR1fSbX4-66" value="место проведения" style="ellipse;whiteSpace=wrap;html=1;" vertex="1" parent="1">
          <mxGeometry x="-660" y="320" width="120" height="40" as="geometry" />
        </mxCell>
        <mxCell id="_udomX1yUHnwnR1fSbX4-67" value="id матча" style="ellipse;whiteSpace=wrap;html=1;" vertex="1" parent="1">
          <mxGeometry x="-490" y="340" width="120" height="40" as="geometry" />
        </mxCell>
        <mxCell id="_udomX1yUHnwnR1fSbX4-76" value="id команд" style="ellipse;whiteSpace=wrap;html=1;" vertex="1" parent="1">
          <mxGeometry x="-600" y="490" width="120" height="40" as="geometry" />
        </mxCell>
        <mxCell id="_udomX1yUHnwnR1fSbX4-77" value="" style="endArrow=none;html=1;rounded=0;entryX=0;entryY=1;entryDx=0;entryDy=0;exitX=1;exitY=0;exitDx=0;exitDy=0;" edge="1" parent="1" source="_udomX1yUHnwnR1fSbX4-89" target="_udomX1yUHnwnR1fSbX4-1">
          <mxGeometry width="50" height="50" relative="1" as="geometry">
            <mxPoint x="-360" y="520" as="sourcePoint" />
            <mxPoint x="-170" y="520" as="targetPoint" />
          </mxGeometry>
        </mxCell>
        <mxCell id="_udomX1yUHnwnR1fSbX4-78" value="" style="endArrow=none;html=1;rounded=0;exitX=0.417;exitY=0;exitDx=0;exitDy=0;exitPerimeter=0;entryX=0.317;entryY=1;entryDx=0;entryDy=0;entryPerimeter=0;" edge="1" parent="1" source="_udomX1yUHnwnR1fSbX4-76" target="_udomX1yUHnwnR1fSbX4-62">
          <mxGeometry width="50" height="50" relative="1" as="geometry">
            <mxPoint x="-548" y="500" as="sourcePoint" />
            <mxPoint x="-498" y="450" as="targetPoint" />
          </mxGeometry>
        </mxCell>
        <mxCell id="_udomX1yUHnwnR1fSbX4-80" value="" style="endArrow=none;html=1;rounded=0;exitX=0.967;exitY=0.2;exitDx=0;exitDy=0;exitPerimeter=0;" edge="1" parent="1" source="_udomX1yUHnwnR1fSbX4-65">
          <mxGeometry width="50" height="50" relative="1" as="geometry">
            <mxPoint x="-633" y="470" as="sourcePoint" />
            <mxPoint x="-583" y="420" as="targetPoint" />
          </mxGeometry>
        </mxCell>
        <mxCell id="_udomX1yUHnwnR1fSbX4-81" value="" style="endArrow=none;html=1;rounded=0;entryX=0.592;entryY=0.925;entryDx=0;entryDy=0;entryPerimeter=0;exitX=0.25;exitY=0;exitDx=0;exitDy=0;" edge="1" parent="1" source="_udomX1yUHnwnR1fSbX4-62" target="_udomX1yUHnwnR1fSbX4-66">
          <mxGeometry width="50" height="50" relative="1" as="geometry">
            <mxPoint x="-530" y="590" as="sourcePoint" />
            <mxPoint x="-480" y="540" as="targetPoint" />
          </mxGeometry>
        </mxCell>
        <mxCell id="_udomX1yUHnwnR1fSbX4-82" value="" style="endArrow=none;html=1;rounded=0;exitX=1;exitY=0.25;exitDx=0;exitDy=0;entryX=0.417;entryY=0.95;entryDx=0;entryDy=0;entryPerimeter=0;" edge="1" parent="1" source="_udomX1yUHnwnR1fSbX4-62" target="_udomX1yUHnwnR1fSbX4-67">
          <mxGeometry width="50" height="50" relative="1" as="geometry">
            <mxPoint x="-483" y="445" as="sourcePoint" />
            <mxPoint x="-433" y="395" as="targetPoint" />
          </mxGeometry>
        </mxCell>
        <mxCell id="_udomX1yUHnwnR1fSbX4-89" value="играет" style="rhombus;whiteSpace=wrap;html=1;" vertex="1" parent="1">
          <mxGeometry x="-360" y="350" width="80" height="60" as="geometry" />
        </mxCell>
        <mxCell id="_udomX1yUHnwnR1fSbX4-90" value="" style="endArrow=none;html=1;rounded=0;exitX=1;exitY=0.75;exitDx=0;exitDy=0;entryX=0;entryY=1;entryDx=0;entryDy=0;" edge="1" parent="1" source="_udomX1yUHnwnR1fSbX4-62" target="_udomX1yUHnwnR1fSbX4-89">
          <mxGeometry width="50" height="50" relative="1" as="geometry">
            <mxPoint x="-490" y="570" as="sourcePoint" />
            <mxPoint x="-440" y="520" as="targetPoint" />
          </mxGeometry>
        </mxCell>
        <mxCell id="fhClTe-ZCQQ81u3gvwPT-5" style="edgeStyle=orthogonalEdgeStyle;rounded=0;orthogonalLoop=1;jettySize=auto;html=1;exitX=0.5;exitY=0;exitDx=0;exitDy=0;entryX=0.5;entryY=1;entryDx=0;entryDy=0;" edge="1" parent="1" source="WnXqNh1kkMshPcRodjIi-5" target="_udomX1yUHnwnR1fSbX4-44">
          <mxGeometry relative="1" as="geometry">
            <mxPoint x="134" y="350" as="sourcePoint" />
          </mxGeometry>
        </mxCell>
        <mxCell id="fhClTe-ZCQQ81u3gvwPT-4" style="rounded=0;orthogonalLoop=1;jettySize=auto;html=1;exitX=0.5;exitY=1;exitDx=0;exitDy=0;entryX=0.5;entryY=0;entryDx=0;entryDy=0;" edge="1" parent="1" source="fhClTe-ZCQQ81u3gvwPT-2" target="_udomX1yUHnwnR1fSbX4-44">
          <mxGeometry relative="1" as="geometry" />
        </mxCell>
        <mxCell id="fhClTe-ZCQQ81u3gvwPT-2" value="по" style="ellipse;whiteSpace=wrap;html=1;" vertex="1" parent="1">
          <mxGeometry x="140" y="190" width="80" height="40" as="geometry" />
        </mxCell>
        <mxCell id="WnXqNh1kkMshPcRodjIi-1" value="" style="endArrow=none;html=1;rounded=0;exitX=0.3;exitY=0;exitDx=0;exitDy=0;exitPerimeter=0;" edge="1" parent="1" source="_udomX1yUHnwnR1fSbX4-64">
          <mxGeometry width="50" height="50" relative="1" as="geometry">
            <mxPoint x="-540" y="500" as="sourcePoint" />
            <mxPoint x="-490" y="450" as="targetPoint" />
          </mxGeometry>
        </mxCell>
        <mxCell id="WnXqNh1kkMshPcRodjIi-2" value="позиция" style="ellipse;whiteSpace=wrap;html=1;" vertex="1" parent="1">
          <mxGeometry x="-10" y="490" width="120" height="40" as="geometry" />
        </mxCell>
        <mxCell id="WnXqNh1kkMshPcRodjIi-5" value="с" style="ellipse;whiteSpace=wrap;html=1;" vertex="1" parent="1">
          <mxGeometry x="60" y="370" width="80" height="40" as="geometry" />
        </mxCell>
        <mxCell id="4ooP7giDrAv-61Y1-EYD-1" value="Team" style="shape=table;startSize=30;container=1;collapsible=1;childLayout=tableLayout;fixedRows=1;rowLines=0;fontStyle=1;align=center;resizeLast=1;html=1;miterlimit=5;" vertex="1" parent="1">
          <mxGeometry x="-300" y="730" width="180" height="240" as="geometry">
            <mxRectangle x="350" y="170" width="70" height="30" as="alternateBounds" />
          </mxGeometry>
        </mxCell>
        <mxCell id="4ooP7giDrAv-61Y1-EYD-2" value="" style="shape=tableRow;horizontal=0;startSize=0;swimlaneHead=0;swimlaneBody=0;fillColor=none;collapsible=0;dropTarget=0;points=[[0,0.5],[1,0.5]];portConstraint=eastwest;top=0;left=0;right=0;bottom=1;" vertex="1" parent="4ooP7giDrAv-61Y1-EYD-1">
          <mxGeometry y="30" width="180" height="30" as="geometry" />
        </mxCell>
        <mxCell id="4ooP7giDrAv-61Y1-EYD-3" value="PK" style="shape=partialRectangle;connectable=0;fillColor=none;top=0;left=0;bottom=0;right=0;fontStyle=1;overflow=hidden;whiteSpace=wrap;html=1;" vertex="1" parent="4ooP7giDrAv-61Y1-EYD-2">
          <mxGeometry width="30" height="30" as="geometry">
            <mxRectangle width="30" height="30" as="alternateBounds" />
          </mxGeometry>
        </mxCell>
        <mxCell id="4ooP7giDrAv-61Y1-EYD-4" value="id team" style="shape=partialRectangle;connectable=0;fillColor=none;top=0;left=0;bottom=0;right=0;align=left;spacingLeft=6;fontStyle=5;overflow=hidden;whiteSpace=wrap;html=1;" vertex="1" parent="4ooP7giDrAv-61Y1-EYD-2">
          <mxGeometry x="30" width="150" height="30" as="geometry">
            <mxRectangle width="150" height="30" as="alternateBounds" />
          </mxGeometry>
        </mxCell>
        <mxCell id="4ooP7giDrAv-61Y1-EYD-5" value="" style="shape=tableRow;horizontal=0;startSize=0;swimlaneHead=0;swimlaneBody=0;fillColor=none;collapsible=0;dropTarget=0;points=[[0,0.5],[1,0.5]];portConstraint=eastwest;top=0;left=0;right=0;bottom=0;" vertex="1" parent="4ooP7giDrAv-61Y1-EYD-1">
          <mxGeometry y="60" width="180" height="30" as="geometry" />
        </mxCell>
        <mxCell id="4ooP7giDrAv-61Y1-EYD-6" value="" style="shape=partialRectangle;connectable=0;fillColor=none;top=0;left=0;bottom=0;right=0;editable=1;overflow=hidden;whiteSpace=wrap;html=1;" vertex="1" parent="4ooP7giDrAv-61Y1-EYD-5">
          <mxGeometry width="30" height="30" as="geometry">
            <mxRectangle width="30" height="30" as="alternateBounds" />
          </mxGeometry>
        </mxCell>
        <mxCell id="4ooP7giDrAv-61Y1-EYD-7" value="name" style="shape=partialRectangle;connectable=0;fillColor=none;top=0;left=0;bottom=0;right=0;align=left;spacingLeft=6;overflow=hidden;whiteSpace=wrap;html=1;" vertex="1" parent="4ooP7giDrAv-61Y1-EYD-5">
          <mxGeometry x="30" width="150" height="30" as="geometry">
            <mxRectangle width="150" height="30" as="alternateBounds" />
          </mxGeometry>
        </mxCell>
        <mxCell id="4ooP7giDrAv-61Y1-EYD-8" value="" style="shape=tableRow;horizontal=0;startSize=0;swimlaneHead=0;swimlaneBody=0;fillColor=none;collapsible=0;dropTarget=0;points=[[0,0.5],[1,0.5]];portConstraint=eastwest;top=0;left=0;right=0;bottom=0;" vertex="1" parent="4ooP7giDrAv-61Y1-EYD-1">
          <mxGeometry y="90" width="180" height="30" as="geometry" />
        </mxCell>
        <mxCell id="4ooP7giDrAv-61Y1-EYD-9" value="" style="shape=partialRectangle;connectable=0;fillColor=none;top=0;left=0;bottom=0;right=0;editable=1;overflow=hidden;whiteSpace=wrap;html=1;" vertex="1" parent="4ooP7giDrAv-61Y1-EYD-8">
          <mxGeometry width="30" height="30" as="geometry">
            <mxRectangle width="30" height="30" as="alternateBounds" />
          </mxGeometry>
        </mxCell>
        <mxCell id="4ooP7giDrAv-61Y1-EYD-10" value="year of foundation" style="shape=partialRectangle;connectable=0;fillColor=none;top=0;left=0;bottom=0;right=0;align=left;spacingLeft=6;overflow=hidden;whiteSpace=wrap;html=1;" vertex="1" parent="4ooP7giDrAv-61Y1-EYD-8">
          <mxGeometry x="30" width="150" height="30" as="geometry">
            <mxRectangle width="150" height="30" as="alternateBounds" />
          </mxGeometry>
        </mxCell>
        <mxCell id="4ooP7giDrAv-61Y1-EYD-11" style="shape=tableRow;horizontal=0;startSize=0;swimlaneHead=0;swimlaneBody=0;fillColor=none;collapsible=0;dropTarget=0;points=[[0,0.5],[1,0.5]];portConstraint=eastwest;top=0;left=0;right=0;bottom=0;" vertex="1" parent="4ooP7giDrAv-61Y1-EYD-1">
          <mxGeometry y="120" width="180" height="30" as="geometry" />
        </mxCell>
        <mxCell id="4ooP7giDrAv-61Y1-EYD-12" value="&lt;div&gt;&lt;br&gt;&lt;/div&gt;&lt;div&gt;&lt;br&gt;&lt;/div&gt;" style="shape=partialRectangle;connectable=0;fillColor=none;top=0;left=0;bottom=0;right=0;editable=1;overflow=hidden;whiteSpace=wrap;html=1;" vertex="1" parent="4ooP7giDrAv-61Y1-EYD-11">
          <mxGeometry width="30" height="30" as="geometry">
            <mxRectangle width="30" height="30" as="alternateBounds" />
          </mxGeometry>
        </mxCell>
        <mxCell id="4ooP7giDrAv-61Y1-EYD-13" value="structure" style="shape=partialRectangle;connectable=0;fillColor=none;top=0;left=0;bottom=0;right=0;align=left;spacingLeft=6;overflow=hidden;whiteSpace=wrap;html=1;" vertex="1" parent="4ooP7giDrAv-61Y1-EYD-11">
          <mxGeometry x="30" width="150" height="30" as="geometry">
            <mxRectangle width="150" height="30" as="alternateBounds" />
          </mxGeometry>
        </mxCell>
        <mxCell id="4ooP7giDrAv-61Y1-EYD-14" style="shape=tableRow;horizontal=0;startSize=0;swimlaneHead=0;swimlaneBody=0;fillColor=none;collapsible=0;dropTarget=0;points=[[0,0.5],[1,0.5]];portConstraint=eastwest;top=0;left=0;right=0;bottom=0;" vertex="1" parent="4ooP7giDrAv-61Y1-EYD-1">
          <mxGeometry y="150" width="180" height="30" as="geometry" />
        </mxCell>
        <mxCell id="4ooP7giDrAv-61Y1-EYD-15" style="shape=partialRectangle;connectable=0;fillColor=none;top=0;left=0;bottom=0;right=0;editable=1;overflow=hidden;whiteSpace=wrap;html=1;" vertex="1" parent="4ooP7giDrAv-61Y1-EYD-14">
          <mxGeometry width="30" height="30" as="geometry">
            <mxRectangle width="30" height="30" as="alternateBounds" />
          </mxGeometry>
        </mxCell>
        <mxCell id="4ooP7giDrAv-61Y1-EYD-16" value="country" style="shape=partialRectangle;connectable=0;fillColor=none;top=0;left=0;bottom=0;right=0;align=left;spacingLeft=6;overflow=hidden;whiteSpace=wrap;html=1;" vertex="1" parent="4ooP7giDrAv-61Y1-EYD-14">
          <mxGeometry x="30" width="150" height="30" as="geometry">
            <mxRectangle width="150" height="30" as="alternateBounds" />
          </mxGeometry>
        </mxCell>
        <mxCell id="4ooP7giDrAv-61Y1-EYD-17" style="shape=tableRow;horizontal=0;startSize=0;swimlaneHead=0;swimlaneBody=0;fillColor=none;collapsible=0;dropTarget=0;points=[[0,0.5],[1,0.5]];portConstraint=eastwest;top=0;left=0;right=0;bottom=0;" vertex="1" parent="4ooP7giDrAv-61Y1-EYD-1">
          <mxGeometry y="180" width="180" height="30" as="geometry" />
        </mxCell>
        <mxCell id="4ooP7giDrAv-61Y1-EYD-18" style="shape=partialRectangle;connectable=0;fillColor=none;top=0;left=0;bottom=0;right=0;editable=1;overflow=hidden;whiteSpace=wrap;html=1;" vertex="1" parent="4ooP7giDrAv-61Y1-EYD-17">
          <mxGeometry width="30" height="30" as="geometry">
            <mxRectangle width="30" height="30" as="alternateBounds" />
          </mxGeometry>
        </mxCell>
        <mxCell id="4ooP7giDrAv-61Y1-EYD-19" value="trophies" style="shape=partialRectangle;connectable=0;fillColor=none;top=0;left=0;bottom=0;right=0;align=left;spacingLeft=6;overflow=hidden;whiteSpace=wrap;html=1;" vertex="1" parent="4ooP7giDrAv-61Y1-EYD-17">
          <mxGeometry x="30" width="150" height="30" as="geometry">
            <mxRectangle width="150" height="30" as="alternateBounds" />
          </mxGeometry>
        </mxCell>
        <mxCell id="SF67kjxPPZI76-cIm9Vv-52" style="shape=tableRow;horizontal=0;startSize=0;swimlaneHead=0;swimlaneBody=0;fillColor=none;collapsible=0;dropTarget=0;points=[[0,0.5],[1,0.5]];portConstraint=eastwest;top=0;left=0;right=0;bottom=0;" vertex="1" parent="4ooP7giDrAv-61Y1-EYD-1">
          <mxGeometry y="210" width="180" height="30" as="geometry" />
        </mxCell>
        <mxCell id="SF67kjxPPZI76-cIm9Vv-53" value="FK" style="shape=partialRectangle;connectable=0;fillColor=none;top=0;left=0;bottom=0;right=0;editable=1;overflow=hidden;whiteSpace=wrap;html=1;" vertex="1" parent="SF67kjxPPZI76-cIm9Vv-52">
          <mxGeometry width="30" height="30" as="geometry">
            <mxRectangle width="30" height="30" as="alternateBounds" />
          </mxGeometry>
        </mxCell>
        <mxCell id="SF67kjxPPZI76-cIm9Vv-54" value="id coach&lt;div&gt;&lt;br&gt;&lt;/div&gt;" style="shape=partialRectangle;connectable=0;fillColor=none;top=0;left=0;bottom=0;right=0;align=left;spacingLeft=6;overflow=hidden;whiteSpace=wrap;html=1;" vertex="1" parent="SF67kjxPPZI76-cIm9Vv-52">
          <mxGeometry x="30" width="150" height="30" as="geometry">
            <mxRectangle width="150" height="30" as="alternateBounds" />
          </mxGeometry>
        </mxCell>
        <mxCell id="4ooP7giDrAv-61Y1-EYD-20" value="Player" style="shape=table;startSize=30;container=1;collapsible=1;childLayout=tableLayout;fixedRows=1;rowLines=0;fontStyle=1;align=center;resizeLast=1;html=1;" vertex="1" parent="1">
          <mxGeometry x="10" y="740" width="180" height="270" as="geometry" />
        </mxCell>
        <mxCell id="4ooP7giDrAv-61Y1-EYD-21" value="" style="shape=tableRow;horizontal=0;startSize=0;swimlaneHead=0;swimlaneBody=0;fillColor=none;collapsible=0;dropTarget=0;points=[[0,0.5],[1,0.5]];portConstraint=eastwest;top=0;left=0;right=0;bottom=1;" vertex="1" parent="4ooP7giDrAv-61Y1-EYD-20">
          <mxGeometry y="30" width="180" height="30" as="geometry" />
        </mxCell>
        <mxCell id="4ooP7giDrAv-61Y1-EYD-22" value="PK" style="shape=partialRectangle;connectable=0;fillColor=none;top=0;left=0;bottom=0;right=0;fontStyle=1;overflow=hidden;whiteSpace=wrap;html=1;" vertex="1" parent="4ooP7giDrAv-61Y1-EYD-21">
          <mxGeometry width="30" height="30" as="geometry">
            <mxRectangle width="30" height="30" as="alternateBounds" />
          </mxGeometry>
        </mxCell>
        <mxCell id="4ooP7giDrAv-61Y1-EYD-23" value="number" style="shape=partialRectangle;connectable=0;fillColor=none;top=0;left=0;bottom=0;right=0;align=left;spacingLeft=6;fontStyle=5;overflow=hidden;whiteSpace=wrap;html=1;" vertex="1" parent="4ooP7giDrAv-61Y1-EYD-21">
          <mxGeometry x="30" width="150" height="30" as="geometry">
            <mxRectangle width="150" height="30" as="alternateBounds" />
          </mxGeometry>
        </mxCell>
        <mxCell id="4ooP7giDrAv-61Y1-EYD-24" value="" style="shape=tableRow;horizontal=0;startSize=0;swimlaneHead=0;swimlaneBody=0;fillColor=none;collapsible=0;dropTarget=0;points=[[0,0.5],[1,0.5]];portConstraint=eastwest;top=0;left=0;right=0;bottom=0;" vertex="1" parent="4ooP7giDrAv-61Y1-EYD-20">
          <mxGeometry y="60" width="180" height="30" as="geometry" />
        </mxCell>
        <mxCell id="4ooP7giDrAv-61Y1-EYD-25" value="" style="shape=partialRectangle;connectable=0;fillColor=none;top=0;left=0;bottom=0;right=0;editable=1;overflow=hidden;whiteSpace=wrap;html=1;" vertex="1" parent="4ooP7giDrAv-61Y1-EYD-24">
          <mxGeometry width="30" height="30" as="geometry">
            <mxRectangle width="30" height="30" as="alternateBounds" />
          </mxGeometry>
        </mxCell>
        <mxCell id="4ooP7giDrAv-61Y1-EYD-26" value="ФИО" style="shape=partialRectangle;connectable=0;fillColor=none;top=0;left=0;bottom=0;right=0;align=left;spacingLeft=6;overflow=hidden;whiteSpace=wrap;html=1;" vertex="1" parent="4ooP7giDrAv-61Y1-EYD-24">
          <mxGeometry x="30" width="150" height="30" as="geometry">
            <mxRectangle width="150" height="30" as="alternateBounds" />
          </mxGeometry>
        </mxCell>
        <mxCell id="4ooP7giDrAv-61Y1-EYD-27" value="" style="shape=tableRow;horizontal=0;startSize=0;swimlaneHead=0;swimlaneBody=0;fillColor=none;collapsible=0;dropTarget=0;points=[[0,0.5],[1,0.5]];portConstraint=eastwest;top=0;left=0;right=0;bottom=0;" vertex="1" parent="4ooP7giDrAv-61Y1-EYD-20">
          <mxGeometry y="90" width="180" height="30" as="geometry" />
        </mxCell>
        <mxCell id="4ooP7giDrAv-61Y1-EYD-28" value="" style="shape=partialRectangle;connectable=0;fillColor=none;top=0;left=0;bottom=0;right=0;editable=1;overflow=hidden;whiteSpace=wrap;html=1;" vertex="1" parent="4ooP7giDrAv-61Y1-EYD-27">
          <mxGeometry width="30" height="30" as="geometry">
            <mxRectangle width="30" height="30" as="alternateBounds" />
          </mxGeometry>
        </mxCell>
        <mxCell id="4ooP7giDrAv-61Y1-EYD-29" value="position" style="shape=partialRectangle;connectable=0;fillColor=none;top=0;left=0;bottom=0;right=0;align=left;spacingLeft=6;overflow=hidden;whiteSpace=wrap;html=1;" vertex="1" parent="4ooP7giDrAv-61Y1-EYD-27">
          <mxGeometry x="30" width="150" height="30" as="geometry">
            <mxRectangle width="150" height="30" as="alternateBounds" />
          </mxGeometry>
        </mxCell>
        <mxCell id="4ooP7giDrAv-61Y1-EYD-30" value="" style="shape=tableRow;horizontal=0;startSize=0;swimlaneHead=0;swimlaneBody=0;fillColor=none;collapsible=0;dropTarget=0;points=[[0,0.5],[1,0.5]];portConstraint=eastwest;top=0;left=0;right=0;bottom=0;" vertex="1" parent="4ooP7giDrAv-61Y1-EYD-20">
          <mxGeometry y="120" width="180" height="30" as="geometry" />
        </mxCell>
        <mxCell id="4ooP7giDrAv-61Y1-EYD-31" value="" style="shape=partialRectangle;connectable=0;fillColor=none;top=0;left=0;bottom=0;right=0;editable=1;overflow=hidden;whiteSpace=wrap;html=1;" vertex="1" parent="4ooP7giDrAv-61Y1-EYD-30">
          <mxGeometry width="30" height="30" as="geometry">
            <mxRectangle width="30" height="30" as="alternateBounds" />
          </mxGeometry>
        </mxCell>
        <mxCell id="4ooP7giDrAv-61Y1-EYD-32" value="statistics" style="shape=partialRectangle;connectable=0;fillColor=none;top=0;left=0;bottom=0;right=0;align=left;spacingLeft=6;overflow=hidden;whiteSpace=wrap;html=1;" vertex="1" parent="4ooP7giDrAv-61Y1-EYD-30">
          <mxGeometry x="30" width="150" height="30" as="geometry">
            <mxRectangle width="150" height="30" as="alternateBounds" />
          </mxGeometry>
        </mxCell>
        <mxCell id="4ooP7giDrAv-61Y1-EYD-33" style="shape=tableRow;horizontal=0;startSize=0;swimlaneHead=0;swimlaneBody=0;fillColor=none;collapsible=0;dropTarget=0;points=[[0,0.5],[1,0.5]];portConstraint=eastwest;top=0;left=0;right=0;bottom=0;" vertex="1" parent="4ooP7giDrAv-61Y1-EYD-20">
          <mxGeometry y="150" width="180" height="30" as="geometry" />
        </mxCell>
        <mxCell id="4ooP7giDrAv-61Y1-EYD-34" style="shape=partialRectangle;connectable=0;fillColor=none;top=0;left=0;bottom=0;right=0;editable=1;overflow=hidden;whiteSpace=wrap;html=1;" vertex="1" parent="4ooP7giDrAv-61Y1-EYD-33">
          <mxGeometry width="30" height="30" as="geometry">
            <mxRectangle width="30" height="30" as="alternateBounds" />
          </mxGeometry>
        </mxCell>
        <mxCell id="4ooP7giDrAv-61Y1-EYD-35" value="salary" style="shape=partialRectangle;connectable=0;fillColor=none;top=0;left=0;bottom=0;right=0;align=left;spacingLeft=6;overflow=hidden;whiteSpace=wrap;html=1;" vertex="1" parent="4ooP7giDrAv-61Y1-EYD-33">
          <mxGeometry x="30" width="150" height="30" as="geometry">
            <mxRectangle width="150" height="30" as="alternateBounds" />
          </mxGeometry>
        </mxCell>
        <mxCell id="4ooP7giDrAv-61Y1-EYD-36" style="shape=tableRow;horizontal=0;startSize=0;swimlaneHead=0;swimlaneBody=0;fillColor=none;collapsible=0;dropTarget=0;points=[[0,0.5],[1,0.5]];portConstraint=eastwest;top=0;left=0;right=0;bottom=0;" vertex="1" parent="4ooP7giDrAv-61Y1-EYD-20">
          <mxGeometry y="180" width="180" height="30" as="geometry" />
        </mxCell>
        <mxCell id="4ooP7giDrAv-61Y1-EYD-37" style="shape=partialRectangle;connectable=0;fillColor=none;top=0;left=0;bottom=0;right=0;editable=1;overflow=hidden;whiteSpace=wrap;html=1;" vertex="1" parent="4ooP7giDrAv-61Y1-EYD-36">
          <mxGeometry width="30" height="30" as="geometry">
            <mxRectangle width="30" height="30" as="alternateBounds" />
          </mxGeometry>
        </mxCell>
        <mxCell id="4ooP7giDrAv-61Y1-EYD-38" value="price" style="shape=partialRectangle;connectable=0;fillColor=none;top=0;left=0;bottom=0;right=0;align=left;spacingLeft=6;overflow=hidden;whiteSpace=wrap;html=1;" vertex="1" parent="4ooP7giDrAv-61Y1-EYD-36">
          <mxGeometry x="30" width="150" height="30" as="geometry">
            <mxRectangle width="150" height="30" as="alternateBounds" />
          </mxGeometry>
        </mxCell>
        <mxCell id="4ooP7giDrAv-61Y1-EYD-39" style="shape=tableRow;horizontal=0;startSize=0;swimlaneHead=0;swimlaneBody=0;fillColor=none;collapsible=0;dropTarget=0;points=[[0,0.5],[1,0.5]];portConstraint=eastwest;top=0;left=0;right=0;bottom=0;" vertex="1" parent="4ooP7giDrAv-61Y1-EYD-20">
          <mxGeometry y="210" width="180" height="30" as="geometry" />
        </mxCell>
        <mxCell id="4ooP7giDrAv-61Y1-EYD-40" style="shape=partialRectangle;connectable=0;fillColor=none;top=0;left=0;bottom=0;right=0;editable=1;overflow=hidden;whiteSpace=wrap;html=1;" vertex="1" parent="4ooP7giDrAv-61Y1-EYD-39">
          <mxGeometry width="30" height="30" as="geometry">
            <mxRectangle width="30" height="30" as="alternateBounds" />
          </mxGeometry>
        </mxCell>
        <mxCell id="4ooP7giDrAv-61Y1-EYD-41" value="nationality" style="shape=partialRectangle;connectable=0;fillColor=none;top=0;left=0;bottom=0;right=0;align=left;spacingLeft=6;overflow=hidden;whiteSpace=wrap;html=1;" vertex="1" parent="4ooP7giDrAv-61Y1-EYD-39">
          <mxGeometry x="30" width="150" height="30" as="geometry">
            <mxRectangle width="150" height="30" as="alternateBounds" />
          </mxGeometry>
        </mxCell>
        <mxCell id="SF67kjxPPZI76-cIm9Vv-44" style="shape=tableRow;horizontal=0;startSize=0;swimlaneHead=0;swimlaneBody=0;fillColor=none;collapsible=0;dropTarget=0;points=[[0,0.5],[1,0.5]];portConstraint=eastwest;top=0;left=0;right=0;bottom=0;" vertex="1" parent="4ooP7giDrAv-61Y1-EYD-20">
          <mxGeometry y="240" width="180" height="30" as="geometry" />
        </mxCell>
        <mxCell id="SF67kjxPPZI76-cIm9Vv-45" value="FK" style="shape=partialRectangle;connectable=0;fillColor=none;top=0;left=0;bottom=0;right=0;editable=1;overflow=hidden;whiteSpace=wrap;html=1;" vertex="1" parent="SF67kjxPPZI76-cIm9Vv-44">
          <mxGeometry width="30" height="30" as="geometry">
            <mxRectangle width="30" height="30" as="alternateBounds" />
          </mxGeometry>
        </mxCell>
        <mxCell id="SF67kjxPPZI76-cIm9Vv-46" value="id team" style="shape=partialRectangle;connectable=0;fillColor=none;top=0;left=0;bottom=0;right=0;align=left;spacingLeft=6;overflow=hidden;whiteSpace=wrap;html=1;" vertex="1" parent="SF67kjxPPZI76-cIm9Vv-44">
          <mxGeometry x="30" width="150" height="30" as="geometry">
            <mxRectangle width="150" height="30" as="alternateBounds" />
          </mxGeometry>
        </mxCell>
        <mxCell id="4ooP7giDrAv-61Y1-EYD-42" value="coach" style="shape=table;startSize=40;container=1;collapsible=1;childLayout=tableLayout;fixedRows=1;rowLines=0;fontStyle=1;align=center;resizeLast=1;html=1;" vertex="1" parent="1">
          <mxGeometry x="-600" y="795" width="180" height="160" as="geometry" />
        </mxCell>
        <mxCell id="4ooP7giDrAv-61Y1-EYD-43" value="" style="shape=tableRow;horizontal=0;startSize=0;swimlaneHead=0;swimlaneBody=0;fillColor=none;collapsible=0;dropTarget=0;points=[[0,0.5],[1,0.5]];portConstraint=eastwest;top=0;left=0;right=0;bottom=1;" vertex="1" parent="4ooP7giDrAv-61Y1-EYD-42">
          <mxGeometry y="40" width="180" height="30" as="geometry" />
        </mxCell>
        <mxCell id="4ooP7giDrAv-61Y1-EYD-44" value="PK" style="shape=partialRectangle;connectable=0;fillColor=none;top=0;left=0;bottom=0;right=0;fontStyle=1;overflow=hidden;whiteSpace=wrap;html=1;" vertex="1" parent="4ooP7giDrAv-61Y1-EYD-43">
          <mxGeometry width="30" height="30" as="geometry">
            <mxRectangle width="30" height="30" as="alternateBounds" />
          </mxGeometry>
        </mxCell>
        <mxCell id="4ooP7giDrAv-61Y1-EYD-45" value="id coach" style="shape=partialRectangle;connectable=0;fillColor=none;top=0;left=0;bottom=0;right=0;align=left;spacingLeft=6;fontStyle=5;overflow=hidden;whiteSpace=wrap;html=1;" vertex="1" parent="4ooP7giDrAv-61Y1-EYD-43">
          <mxGeometry x="30" width="150" height="30" as="geometry">
            <mxRectangle width="150" height="30" as="alternateBounds" />
          </mxGeometry>
        </mxCell>
        <mxCell id="4ooP7giDrAv-61Y1-EYD-46" value="" style="shape=tableRow;horizontal=0;startSize=0;swimlaneHead=0;swimlaneBody=0;fillColor=none;collapsible=0;dropTarget=0;points=[[0,0.5],[1,0.5]];portConstraint=eastwest;top=0;left=0;right=0;bottom=0;" vertex="1" parent="4ooP7giDrAv-61Y1-EYD-42">
          <mxGeometry y="70" width="180" height="30" as="geometry" />
        </mxCell>
        <mxCell id="4ooP7giDrAv-61Y1-EYD-47" value="" style="shape=partialRectangle;connectable=0;fillColor=none;top=0;left=0;bottom=0;right=0;editable=1;overflow=hidden;whiteSpace=wrap;html=1;" vertex="1" parent="4ooP7giDrAv-61Y1-EYD-46">
          <mxGeometry width="30" height="30" as="geometry">
            <mxRectangle width="30" height="30" as="alternateBounds" />
          </mxGeometry>
        </mxCell>
        <mxCell id="4ooP7giDrAv-61Y1-EYD-48" value="salary" style="shape=partialRectangle;connectable=0;fillColor=none;top=0;left=0;bottom=0;right=0;align=left;spacingLeft=6;overflow=hidden;whiteSpace=wrap;html=1;" vertex="1" parent="4ooP7giDrAv-61Y1-EYD-46">
          <mxGeometry x="30" width="150" height="30" as="geometry">
            <mxRectangle width="150" height="30" as="alternateBounds" />
          </mxGeometry>
        </mxCell>
        <mxCell id="4ooP7giDrAv-61Y1-EYD-49" value="" style="shape=tableRow;horizontal=0;startSize=0;swimlaneHead=0;swimlaneBody=0;fillColor=none;collapsible=0;dropTarget=0;points=[[0,0.5],[1,0.5]];portConstraint=eastwest;top=0;left=0;right=0;bottom=0;" vertex="1" parent="4ooP7giDrAv-61Y1-EYD-42">
          <mxGeometry y="100" width="180" height="30" as="geometry" />
        </mxCell>
        <mxCell id="4ooP7giDrAv-61Y1-EYD-50" value="" style="shape=partialRectangle;connectable=0;fillColor=none;top=0;left=0;bottom=0;right=0;editable=1;overflow=hidden;whiteSpace=wrap;html=1;" vertex="1" parent="4ooP7giDrAv-61Y1-EYD-49">
          <mxGeometry width="30" height="30" as="geometry">
            <mxRectangle width="30" height="30" as="alternateBounds" />
          </mxGeometry>
        </mxCell>
        <mxCell id="4ooP7giDrAv-61Y1-EYD-51" value="nationality" style="shape=partialRectangle;connectable=0;fillColor=none;top=0;left=0;bottom=0;right=0;align=left;spacingLeft=6;overflow=hidden;whiteSpace=wrap;html=1;" vertex="1" parent="4ooP7giDrAv-61Y1-EYD-49">
          <mxGeometry x="30" width="150" height="30" as="geometry">
            <mxRectangle width="150" height="30" as="alternateBounds" />
          </mxGeometry>
        </mxCell>
        <mxCell id="SF67kjxPPZI76-cIm9Vv-3" style="shape=tableRow;horizontal=0;startSize=0;swimlaneHead=0;swimlaneBody=0;fillColor=none;collapsible=0;dropTarget=0;points=[[0,0.5],[1,0.5]];portConstraint=eastwest;top=0;left=0;right=0;bottom=0;" vertex="1" parent="4ooP7giDrAv-61Y1-EYD-42">
          <mxGeometry y="130" width="180" height="30" as="geometry" />
        </mxCell>
        <mxCell id="SF67kjxPPZI76-cIm9Vv-4" value="" style="shape=partialRectangle;connectable=0;fillColor=none;top=0;left=0;bottom=0;right=0;editable=1;overflow=hidden;whiteSpace=wrap;html=1;" vertex="1" parent="SF67kjxPPZI76-cIm9Vv-3">
          <mxGeometry width="30" height="30" as="geometry">
            <mxRectangle width="30" height="30" as="alternateBounds" />
          </mxGeometry>
        </mxCell>
        <mxCell id="SF67kjxPPZI76-cIm9Vv-5" value="id team" style="shape=partialRectangle;connectable=0;fillColor=none;top=0;left=0;bottom=0;right=0;align=left;spacingLeft=6;overflow=hidden;whiteSpace=wrap;html=1;" vertex="1" parent="SF67kjxPPZI76-cIm9Vv-3">
          <mxGeometry x="30" width="150" height="30" as="geometry">
            <mxRectangle width="150" height="30" as="alternateBounds" />
          </mxGeometry>
        </mxCell>
        <mxCell id="4ooP7giDrAv-61Y1-EYD-52" value="match" style="shape=table;startSize=30;container=1;collapsible=1;childLayout=tableLayout;fixedRows=1;rowLines=0;fontStyle=1;align=center;resizeLast=1;html=1;" vertex="1" parent="1">
          <mxGeometry x="-300" y="1190" width="180" height="150" as="geometry" />
        </mxCell>
        <mxCell id="4ooP7giDrAv-61Y1-EYD-53" value="" style="shape=tableRow;horizontal=0;startSize=0;swimlaneHead=0;swimlaneBody=0;fillColor=none;collapsible=0;dropTarget=0;points=[[0,0.5],[1,0.5]];portConstraint=eastwest;top=0;left=0;right=0;bottom=1;" vertex="1" parent="4ooP7giDrAv-61Y1-EYD-52">
          <mxGeometry y="30" width="180" height="30" as="geometry" />
        </mxCell>
        <mxCell id="4ooP7giDrAv-61Y1-EYD-54" value="PK" style="shape=partialRectangle;connectable=0;fillColor=none;top=0;left=0;bottom=0;right=0;fontStyle=1;overflow=hidden;whiteSpace=wrap;html=1;" vertex="1" parent="4ooP7giDrAv-61Y1-EYD-53">
          <mxGeometry width="30" height="30" as="geometry">
            <mxRectangle width="30" height="30" as="alternateBounds" />
          </mxGeometry>
        </mxCell>
        <mxCell id="4ooP7giDrAv-61Y1-EYD-55" value="match id" style="shape=partialRectangle;connectable=0;fillColor=none;top=0;left=0;bottom=0;right=0;align=left;spacingLeft=6;fontStyle=5;overflow=hidden;whiteSpace=wrap;html=1;" vertex="1" parent="4ooP7giDrAv-61Y1-EYD-53">
          <mxGeometry x="30" width="150" height="30" as="geometry">
            <mxRectangle width="150" height="30" as="alternateBounds" />
          </mxGeometry>
        </mxCell>
        <mxCell id="4ooP7giDrAv-61Y1-EYD-56" value="" style="shape=tableRow;horizontal=0;startSize=0;swimlaneHead=0;swimlaneBody=0;fillColor=none;collapsible=0;dropTarget=0;points=[[0,0.5],[1,0.5]];portConstraint=eastwest;top=0;left=0;right=0;bottom=0;" vertex="1" parent="4ooP7giDrAv-61Y1-EYD-52">
          <mxGeometry y="60" width="180" height="30" as="geometry" />
        </mxCell>
        <mxCell id="4ooP7giDrAv-61Y1-EYD-57" value="" style="shape=partialRectangle;connectable=0;fillColor=none;top=0;left=0;bottom=0;right=0;editable=1;overflow=hidden;whiteSpace=wrap;html=1;" vertex="1" parent="4ooP7giDrAv-61Y1-EYD-56">
          <mxGeometry width="30" height="30" as="geometry">
            <mxRectangle width="30" height="30" as="alternateBounds" />
          </mxGeometry>
        </mxCell>
        <mxCell id="4ooP7giDrAv-61Y1-EYD-58" value="place" style="shape=partialRectangle;connectable=0;fillColor=none;top=0;left=0;bottom=0;right=0;align=left;spacingLeft=6;overflow=hidden;whiteSpace=wrap;html=1;" vertex="1" parent="4ooP7giDrAv-61Y1-EYD-56">
          <mxGeometry x="30" width="150" height="30" as="geometry">
            <mxRectangle width="150" height="30" as="alternateBounds" />
          </mxGeometry>
        </mxCell>
        <mxCell id="4ooP7giDrAv-61Y1-EYD-59" value="" style="shape=tableRow;horizontal=0;startSize=0;swimlaneHead=0;swimlaneBody=0;fillColor=none;collapsible=0;dropTarget=0;points=[[0,0.5],[1,0.5]];portConstraint=eastwest;top=0;left=0;right=0;bottom=0;" vertex="1" parent="4ooP7giDrAv-61Y1-EYD-52">
          <mxGeometry y="90" width="180" height="30" as="geometry" />
        </mxCell>
        <mxCell id="4ooP7giDrAv-61Y1-EYD-60" value="" style="shape=partialRectangle;connectable=0;fillColor=none;top=0;left=0;bottom=0;right=0;editable=1;overflow=hidden;whiteSpace=wrap;html=1;" vertex="1" parent="4ooP7giDrAv-61Y1-EYD-59">
          <mxGeometry width="30" height="30" as="geometry">
            <mxRectangle width="30" height="30" as="alternateBounds" />
          </mxGeometry>
        </mxCell>
        <mxCell id="4ooP7giDrAv-61Y1-EYD-61" value="data" style="shape=partialRectangle;connectable=0;fillColor=none;top=0;left=0;bottom=0;right=0;align=left;spacingLeft=6;overflow=hidden;whiteSpace=wrap;html=1;" vertex="1" parent="4ooP7giDrAv-61Y1-EYD-59">
          <mxGeometry x="30" width="150" height="30" as="geometry">
            <mxRectangle width="150" height="30" as="alternateBounds" />
          </mxGeometry>
        </mxCell>
        <mxCell id="4ooP7giDrAv-61Y1-EYD-65" style="shape=tableRow;horizontal=0;startSize=0;swimlaneHead=0;swimlaneBody=0;fillColor=none;collapsible=0;dropTarget=0;points=[[0,0.5],[1,0.5]];portConstraint=eastwest;top=0;left=0;right=0;bottom=0;" vertex="1" parent="4ooP7giDrAv-61Y1-EYD-52">
          <mxGeometry y="120" width="180" height="30" as="geometry" />
        </mxCell>
        <mxCell id="4ooP7giDrAv-61Y1-EYD-66" style="shape=partialRectangle;connectable=0;fillColor=none;top=0;left=0;bottom=0;right=0;editable=1;overflow=hidden;whiteSpace=wrap;html=1;" vertex="1" parent="4ooP7giDrAv-61Y1-EYD-65">
          <mxGeometry width="30" height="30" as="geometry">
            <mxRectangle width="30" height="30" as="alternateBounds" />
          </mxGeometry>
        </mxCell>
        <mxCell id="4ooP7giDrAv-61Y1-EYD-67" value="result" style="shape=partialRectangle;connectable=0;fillColor=none;top=0;left=0;bottom=0;right=0;align=left;spacingLeft=6;overflow=hidden;whiteSpace=wrap;html=1;" vertex="1" parent="4ooP7giDrAv-61Y1-EYD-65">
          <mxGeometry x="30" width="150" height="30" as="geometry">
            <mxRectangle width="150" height="30" as="alternateBounds" />
          </mxGeometry>
        </mxCell>
        <mxCell id="SF67kjxPPZI76-cIm9Vv-7" value="1" style="text;html=1;align=center;verticalAlign=middle;resizable=0;points=[];autosize=1;strokeColor=none;fillColor=none;" vertex="1" parent="1">
          <mxGeometry x="-111" y="330" width="30" height="30" as="geometry" />
        </mxCell>
        <mxCell id="SF67kjxPPZI76-cIm9Vv-8" value="M" style="text;html=1;align=center;verticalAlign=middle;resizable=0;points=[];autosize=1;strokeColor=none;fillColor=none;" vertex="1" parent="1">
          <mxGeometry x="-105" y="458" width="30" height="30" as="geometry" />
        </mxCell>
        <mxCell id="SF67kjxPPZI76-cIm9Vv-23" value="1" style="text;html=1;align=center;verticalAlign=middle;whiteSpace=wrap;rounded=0;" vertex="1" parent="1">
          <mxGeometry x="-50" y="310" width="60" height="30" as="geometry" />
        </mxCell>
        <mxCell id="SF67kjxPPZI76-cIm9Vv-24" value="M" style="text;html=1;align=center;verticalAlign=middle;whiteSpace=wrap;rounded=0;" vertex="1" parent="1">
          <mxGeometry x="250" y="410" width="60" height="30" as="geometry" />
        </mxCell>
        <mxCell id="SF67kjxPPZI76-cIm9Vv-25" value="N" style="text;html=1;align=center;verticalAlign=middle;whiteSpace=wrap;rounded=0;" vertex="1" parent="1">
          <mxGeometry x="-473" y="425" width="60" height="30" as="geometry" />
        </mxCell>
        <mxCell id="SF67kjxPPZI76-cIm9Vv-26" value="M" style="text;html=1;align=center;verticalAlign=middle;whiteSpace=wrap;rounded=0;" vertex="1" parent="1">
          <mxGeometry x="-190" y="340" width="60" height="30" as="geometry" />
        </mxCell>
        <mxCell id="SF67kjxPPZI76-cIm9Vv-29" value="team_match" style="shape=table;startSize=30;container=1;collapsible=1;childLayout=tableLayout;fixedRows=1;rowLines=0;fontStyle=1;align=center;resizeLast=1;html=1;" vertex="1" parent="1">
          <mxGeometry x="-300" y="990" width="180" height="150" as="geometry" />
        </mxCell>
        <mxCell id="SF67kjxPPZI76-cIm9Vv-30" value="" style="shape=tableRow;horizontal=0;startSize=0;swimlaneHead=0;swimlaneBody=0;fillColor=none;collapsible=0;dropTarget=0;points=[[0,0.5],[1,0.5]];portConstraint=eastwest;top=0;left=0;right=0;bottom=1;" vertex="1" parent="SF67kjxPPZI76-cIm9Vv-29">
          <mxGeometry y="30" width="180" height="30" as="geometry" />
        </mxCell>
        <mxCell id="SF67kjxPPZI76-cIm9Vv-31" value="PK" style="shape=partialRectangle;connectable=0;fillColor=none;top=0;left=0;bottom=0;right=0;fontStyle=1;overflow=hidden;whiteSpace=wrap;html=1;" vertex="1" parent="SF67kjxPPZI76-cIm9Vv-30">
          <mxGeometry width="30" height="30" as="geometry">
            <mxRectangle width="30" height="30" as="alternateBounds" />
          </mxGeometry>
        </mxCell>
        <mxCell id="SF67kjxPPZI76-cIm9Vv-32" value="id" style="shape=partialRectangle;connectable=0;fillColor=none;top=0;left=0;bottom=0;right=0;align=left;spacingLeft=6;fontStyle=5;overflow=hidden;whiteSpace=wrap;html=1;" vertex="1" parent="SF67kjxPPZI76-cIm9Vv-30">
          <mxGeometry x="30" width="150" height="30" as="geometry">
            <mxRectangle width="150" height="30" as="alternateBounds" />
          </mxGeometry>
        </mxCell>
        <mxCell id="SF67kjxPPZI76-cIm9Vv-33" value="" style="shape=tableRow;horizontal=0;startSize=0;swimlaneHead=0;swimlaneBody=0;fillColor=none;collapsible=0;dropTarget=0;points=[[0,0.5],[1,0.5]];portConstraint=eastwest;top=0;left=0;right=0;bottom=0;" vertex="1" parent="SF67kjxPPZI76-cIm9Vv-29">
          <mxGeometry y="60" width="180" height="30" as="geometry" />
        </mxCell>
        <mxCell id="SF67kjxPPZI76-cIm9Vv-34" value="FK" style="shape=partialRectangle;connectable=0;fillColor=none;top=0;left=0;bottom=0;right=0;editable=1;overflow=hidden;whiteSpace=wrap;html=1;" vertex="1" parent="SF67kjxPPZI76-cIm9Vv-33">
          <mxGeometry width="30" height="30" as="geometry">
            <mxRectangle width="30" height="30" as="alternateBounds" />
          </mxGeometry>
        </mxCell>
        <mxCell id="SF67kjxPPZI76-cIm9Vv-35" value="id team" style="shape=partialRectangle;connectable=0;fillColor=none;top=0;left=0;bottom=0;right=0;align=left;spacingLeft=6;overflow=hidden;whiteSpace=wrap;html=1;" vertex="1" parent="SF67kjxPPZI76-cIm9Vv-33">
          <mxGeometry x="30" width="150" height="30" as="geometry">
            <mxRectangle width="150" height="30" as="alternateBounds" />
          </mxGeometry>
        </mxCell>
        <mxCell id="SF67kjxPPZI76-cIm9Vv-36" value="" style="shape=tableRow;horizontal=0;startSize=0;swimlaneHead=0;swimlaneBody=0;fillColor=none;collapsible=0;dropTarget=0;points=[[0,0.5],[1,0.5]];portConstraint=eastwest;top=0;left=0;right=0;bottom=0;" vertex="1" parent="SF67kjxPPZI76-cIm9Vv-29">
          <mxGeometry y="90" width="180" height="30" as="geometry" />
        </mxCell>
        <mxCell id="SF67kjxPPZI76-cIm9Vv-37" value="FK" style="shape=partialRectangle;connectable=0;fillColor=none;top=0;left=0;bottom=0;right=0;editable=1;overflow=hidden;whiteSpace=wrap;html=1;" vertex="1" parent="SF67kjxPPZI76-cIm9Vv-36">
          <mxGeometry width="30" height="30" as="geometry">
            <mxRectangle width="30" height="30" as="alternateBounds" />
          </mxGeometry>
        </mxCell>
        <mxCell id="SF67kjxPPZI76-cIm9Vv-38" value="match id" style="shape=partialRectangle;connectable=0;fillColor=none;top=0;left=0;bottom=0;right=0;align=left;spacingLeft=6;overflow=hidden;whiteSpace=wrap;html=1;" vertex="1" parent="SF67kjxPPZI76-cIm9Vv-36">
          <mxGeometry x="30" width="150" height="30" as="geometry">
            <mxRectangle width="150" height="30" as="alternateBounds" />
          </mxGeometry>
        </mxCell>
        <mxCell id="SF67kjxPPZI76-cIm9Vv-39" value="" style="shape=tableRow;horizontal=0;startSize=0;swimlaneHead=0;swimlaneBody=0;fillColor=none;collapsible=0;dropTarget=0;points=[[0,0.5],[1,0.5]];portConstraint=eastwest;top=0;left=0;right=0;bottom=0;" vertex="1" parent="SF67kjxPPZI76-cIm9Vv-29">
          <mxGeometry y="120" width="180" height="30" as="geometry" />
        </mxCell>
        <mxCell id="SF67kjxPPZI76-cIm9Vv-40" value="" style="shape=partialRectangle;connectable=0;fillColor=none;top=0;left=0;bottom=0;right=0;editable=1;overflow=hidden;whiteSpace=wrap;html=1;" vertex="1" parent="SF67kjxPPZI76-cIm9Vv-39">
          <mxGeometry width="30" height="30" as="geometry">
            <mxRectangle width="30" height="30" as="alternateBounds" />
          </mxGeometry>
        </mxCell>
        <mxCell id="SF67kjxPPZI76-cIm9Vv-41" value="result" style="shape=partialRectangle;connectable=0;fillColor=none;top=0;left=0;bottom=0;right=0;align=left;spacingLeft=6;overflow=hidden;whiteSpace=wrap;html=1;" vertex="1" parent="SF67kjxPPZI76-cIm9Vv-39">
          <mxGeometry x="30" width="150" height="30" as="geometry">
            <mxRectangle width="150" height="30" as="alternateBounds" />
          </mxGeometry>
        </mxCell>
        <mxCell id="SF67kjxPPZI76-cIm9Vv-42" style="edgeStyle=orthogonalEdgeStyle;rounded=0;orthogonalLoop=1;jettySize=auto;html=1;exitX=0;exitY=0.5;exitDx=0;exitDy=0;entryX=0;entryY=0.5;entryDx=0;entryDy=0;" edge="1" parent="1" source="4ooP7giDrAv-61Y1-EYD-53" target="SF67kjxPPZI76-cIm9Vv-36">
          <mxGeometry relative="1" as="geometry" />
        </mxCell>
        <mxCell id="SF67kjxPPZI76-cIm9Vv-43" style="edgeStyle=orthogonalEdgeStyle;rounded=0;orthogonalLoop=1;jettySize=auto;html=1;exitX=0;exitY=0.5;exitDx=0;exitDy=0;entryX=0;entryY=0.5;entryDx=0;entryDy=0;" edge="1" parent="1" source="4ooP7giDrAv-61Y1-EYD-2" target="SF67kjxPPZI76-cIm9Vv-33">
          <mxGeometry relative="1" as="geometry" />
        </mxCell>
        <mxCell id="SF67kjxPPZI76-cIm9Vv-47" style="edgeStyle=orthogonalEdgeStyle;rounded=0;orthogonalLoop=1;jettySize=auto;html=1;exitX=1;exitY=0.5;exitDx=0;exitDy=0;entryX=0;entryY=0.5;entryDx=0;entryDy=0;" edge="1" parent="1" source="4ooP7giDrAv-61Y1-EYD-2" target="SF67kjxPPZI76-cIm9Vv-44">
          <mxGeometry relative="1" as="geometry" />
        </mxCell>
        <mxCell id="SF67kjxPPZI76-cIm9Vv-55" style="edgeStyle=orthogonalEdgeStyle;rounded=0;orthogonalLoop=1;jettySize=auto;html=1;exitX=1;exitY=0.5;exitDx=0;exitDy=0;entryX=0;entryY=0.5;entryDx=0;entryDy=0;" edge="1" parent="1" source="4ooP7giDrAv-61Y1-EYD-43" target="SF67kjxPPZI76-cIm9Vv-52">
          <mxGeometry relative="1" as="geometry">
            <Array as="points">
              <mxPoint x="-390" y="850" />
              <mxPoint x="-390" y="900" />
              <mxPoint x="-340" y="900" />
              <mxPoint x="-340" y="955" />
            </Array>
          </mxGeometry>
        </mxCell>
      </root>
    </mxGraphModel>
  </diagram>
</mxfile>
